<?xml version="1.0" encoding="UTF-8" standalone="no"?>
<!-- Created with Inkscape (http://www.inkscape.org/) -->
<svg
   xmlns:dc="http://purl.org/dc/elements/1.1/"
   xmlns:cc="http://web.resource.org/cc/"
   xmlns:rdf="http://www.w3.org/1999/02/22-rdf-syntax-ns#"
   xmlns:svg="http://www.w3.org/2000/svg"
   xmlns="http://www.w3.org/2000/svg"
   xmlns:sodipodi="http://sodipodi.sourceforge.net/DTD/sodipodi-0.dtd"
   xmlns:inkscape="http://www.inkscape.org/namespaces/inkscape"
   width="200"
   height="120"
   id="svg2"
   sodipodi:version="0.32"
   inkscape:version="0.45.1"
   version="1.0"
   sodipodi:docbase="D:\Misc\Images"
   sodipodi:docname="fat-tree.svg"
   inkscape:output_extension="org.inkscape.output.svg.inkscape">
  <defs
     id="defs4" />
  <sodipodi:namedview
     id="base"
     pagecolor="#ffffff"
     bordercolor="#666666"
     borderopacity="1.0"
     gridtolerance="10000"
     guidetolerance="10"
     objecttolerance="10"
     inkscape:pageopacity="0.0"
     inkscape:pageshadow="2"
     inkscape:zoom="1"
     inkscape:cx="344.66501"
     inkscape:cy="33.550481"
     inkscape:document-units="px"
     inkscape:current-layer="layer1"
     width="200px"
     height="120px"
     inkscape:window-width="1280"
     inkscape:window-height="753"
     inkscape:window-x="-4"
     inkscape:window-y="-4" />
  <metadata
     id="metadata7">
    <rdf:RDF>
      <cc:Work
         rdf:about="">
        <dc:format>image/svg+xml</dc:format>
        <dc:type
           rdf:resource="http://purl.org/dc/dcmitype/StillImage" />
      </cc:Work>
    </rdf:RDF>
  </metadata>
  <g
     inkscape:label="Layer 1"
     inkscape:groupmode="layer"
     id="layer1">
    <path
       style="fill:none;fill-rule:evenodd;stroke:#4d4d4d;stroke-width:2;stroke-linecap:butt;stroke-linejoin:miter;stroke-opacity:1;display:inline"
       d="M 16.156655,93.809093 L 21.094076,82.749269"
       id="path2192"
       inkscape:connector-type="polyline"
       inkscape:connection-end="#path2176"
       inkscape:connection-start="#path2160"
       sodipodi:nodetypes="cc" />
    <path
       style="fill:none;fill-rule:evenodd;stroke:#4d4d4d;stroke-width:2;stroke-linecap:butt;stroke-linejoin:miter;stroke-opacity:1"
       d="M 33.780197,93.667642 L 28.96741,82.886998"
       id="path2194"
       inkscape:connector-type="polyline"
       inkscape:connection-start="#path2162"
       inkscape:connection-end="#path2176"
       sodipodi:nodetypes="cc" />
    <path
       style="fill:none;fill-rule:evenodd;stroke:#4d4d4d;stroke-width:2;stroke-linecap:butt;stroke-linejoin:miter;stroke-opacity:1"
       d="M 66.364379,93.343792 L 71.094077,82.749269"
       id="path2196"
       inkscape:connector-type="polyline"
       inkscape:connection-start="#path2164"
       inkscape:connection-end="#path2178"
       sodipodi:nodetypes="cc" />
    <path
       style="fill:none;fill-rule:evenodd;stroke:#4d4d4d;stroke-width:2;stroke-linecap:butt;stroke-linejoin:miter;stroke-opacity:1"
       d="M 83.687138,93.459186 L 78.729774,82.354693"
       id="path2198"
       inkscape:connector-type="polyline"
       inkscape:connection-start="#path2166"
       inkscape:connection-end="#path2178"
       sodipodi:nodetypes="cc" />
    <path
       style="fill:none;fill-rule:evenodd;stroke:#4d4d4d;stroke-width:2;stroke-linecap:butt;stroke-linejoin:miter;stroke-opacity:1"
       d="M 116.27132,93.552248 L 121.21871,82.470087"
       id="path2200"
       inkscape:connector-type="polyline"
       inkscape:connection-start="#path2168"
       inkscape:connection-end="#path2180"
       sodipodi:nodetypes="cc" />
    <path
       style="fill:none;fill-rule:evenodd;stroke:#4d4d4d;stroke-width:2;stroke-linecap:butt;stroke-linejoin:miter;stroke-opacity:1"
       d="M 133.7802,93.667641 L 128.78129,82.470088"
       id="path2202"
       inkscape:connector-type="polyline"
       inkscape:connection-start="#path2170"
       inkscape:connection-end="#path2180"
       sodipodi:nodetypes="cc" />
    <path
       style="fill:none;fill-rule:evenodd;stroke:#4d4d4d;stroke-width:2;stroke-linecap:butt;stroke-linejoin:miter;stroke-opacity:1"
       d="M 166.37435,93.321457 L 171.2802,82.332359"
       id="path2204"
       inkscape:connector-type="polyline"
       inkscape:connection-start="#path2172"
       inkscape:connection-end="#path2182"
       sodipodi:nodetypes="cc" />
    <path
       style="fill:none;fill-rule:evenodd;stroke:#4d4d4d;stroke-width:2;stroke-linecap:butt;stroke-linejoin:miter;stroke-opacity:1"
       d="M 183.68714,93.459186 L 178.68823,82.261633"
       id="path2206"
       inkscape:connector-type="polyline"
       inkscape:connection-start="#path2174"
       inkscape:connection-end="#path2182"
       sodipodi:nodetypes="cc" />
    <path
       style="fill:none;fill-rule:evenodd;stroke:#4d4d4d;stroke-width:4;stroke-linecap:butt;stroke-linejoin:miter;stroke-opacity:1"
       d="M 130.67715,67.641589 L 144.83296,51.787084"
       id="path2208"
       inkscape:connector-type="polyline"
       inkscape:connection-start="#path2180"
       inkscape:connection-end="#path2186"
       sodipodi:nodetypes="cc" />
    <path
       style="fill:none;fill-rule:evenodd;stroke:#4d4d4d;stroke-width:4;stroke-linecap:butt;stroke-linejoin:miter;stroke-opacity:1"
       d="M 169.2918,67.606813 L 155.38882,52.035487"
       id="path2210"
       inkscape:connector-type="polyline"
       inkscape:connection-start="#path2182"
       inkscape:connection-end="#path2186"
       sodipodi:nodetypes="cc" />
    <path
       style="fill:none;fill-rule:evenodd;stroke:#4d4d4d;stroke-width:4;stroke-linecap:butt;stroke-linejoin:miter;stroke-opacity:1"
       d="M 30.344468,68.014194 L 45.316461,51.245564"
       id="path2212"
       inkscape:connector-type="polyline"
       inkscape:connection-start="#path2176"
       inkscape:connection-end="#path2184"
       sodipodi:nodetypes="cc" />
    <path
       style="fill:none;fill-rule:evenodd;stroke:#4d4d4d;stroke-width:4;stroke-linecap:butt;stroke-linejoin:miter;stroke-opacity:1"
       d="M 69.305105,67.621718 L 56.218317,52.964514"
       id="path2214"
       inkscape:connector-type="polyline"
       inkscape:connection-start="#path2178"
       inkscape:connection-end="#path2184"
       sodipodi:nodetypes="cc" />
    <path
       style="fill:none;fill-rule:evenodd;stroke:#4d4d4d;stroke-width:8;stroke-linecap:butt;stroke-linejoin:miter;stroke-opacity:1"
       d="M 54.084957,43.712424 L 95.001523,20.799147"
       id="path2218"
       inkscape:connector-type="polyline"
       inkscape:connection-start="#path2184"
       inkscape:connection-end="#path2188"
       sodipodi:nodetypes="cc" />
    <path
       style="fill:none;fill-rule:evenodd;stroke:#4d4d4d;stroke-width:8;stroke-linecap:butt;stroke-linejoin:miter;stroke-opacity:1"
       d="M 143.51705,42.36955 L 105.08222,20.846041"
       id="path2220"
       inkscape:connector-type="polyline"
       inkscape:connection-start="#path2186"
       inkscape:connection-end="#path2188"
       sodipodi:nodetypes="cc" />
    <path
       sodipodi:type="arc"
       style="opacity:1;fill:#b3b3b3;fill-opacity:1;fill-rule:nonzero;stroke-width:2;stroke-miterlimit:4;stroke-dasharray:none;stroke-dashoffset:0;stroke-opacity:1"
       id="path2160"
       sodipodi:cx="104"
       sodipodi:cy="56.5"
       sodipodi:rx="34.25"
       sodipodi:ry="34.25"
       d="M 138.25 56.5 A 34.25 34.25 0 1 1  69.75,56.5 A 34.25 34.25 0 1 1  138.25 56.5 z"
       transform="matrix(0.2919708,0,0,0.2919708,-17.864963,85.50365)" />
    <path
       transform="matrix(0.2919708,0,0,0.2919708,7.1350367,85.50365)"
       d="M 138.25 56.5 A 34.25 34.25 0 1 1  69.75,56.5 A 34.25 34.25 0 1 1  138.25 56.5 z"
       sodipodi:ry="34.25"
       sodipodi:rx="34.25"
       sodipodi:cy="56.5"
       sodipodi:cx="104"
       id="path2162"
       style="opacity:1;fill:#b3b3b3;fill-opacity:1;fill-rule:nonzero;stroke-width:2;stroke-miterlimit:4;stroke-dasharray:none;stroke-dashoffset:0;stroke-opacity:1"
       sodipodi:type="arc" />
    <path
       transform="matrix(0.2919708,0,0,0.2919708,32.135037,85.50365)"
       d="M 138.25 56.5 A 34.25 34.25 0 1 1  69.75,56.5 A 34.25 34.25 0 1 1  138.25 56.5 z"
       sodipodi:ry="34.25"
       sodipodi:rx="34.25"
       sodipodi:cy="56.5"
       sodipodi:cx="104"
       id="path2164"
       style="opacity:1;fill:#b3b3b3;fill-opacity:1;fill-rule:nonzero;stroke-width:2;stroke-miterlimit:4;stroke-dasharray:none;stroke-dashoffset:0;stroke-opacity:1"
       sodipodi:type="arc" />
    <path
       sodipodi:type="arc"
       style="opacity:1;fill:#b3b3b3;fill-opacity:1;fill-rule:nonzero;stroke-width:2;stroke-miterlimit:4;stroke-dasharray:none;stroke-dashoffset:0;stroke-opacity:1"
       id="path2166"
       sodipodi:cx="104"
       sodipodi:cy="56.5"
       sodipodi:rx="34.25"
       sodipodi:ry="34.25"
       d="M 138.25 56.5 A 34.25 34.25 0 1 1  69.75,56.5 A 34.25 34.25 0 1 1  138.25 56.5 z"
       transform="matrix(0.2919708,0,0,0.2919708,57.135037,85.50365)" />
    <path
       transform="matrix(0.2919708,0,0,0.2919708,82.135037,85.50365)"
       d="M 138.25 56.5 A 34.25 34.25 0 1 1  69.75,56.5 A 34.25 34.25 0 1 1  138.25 56.5 z"
       sodipodi:ry="34.25"
       sodipodi:rx="34.25"
       sodipodi:cy="56.5"
       sodipodi:cx="104"
       id="path2168"
       style="opacity:1;fill:#b3b3b3;fill-opacity:1;fill-rule:nonzero;stroke-width:2;stroke-miterlimit:4;stroke-dasharray:none;stroke-dashoffset:0;stroke-opacity:1"
       sodipodi:type="arc" />
    <path
       sodipodi:type="arc"
       style="opacity:1;fill:#b3b3b3;fill-opacity:1;fill-rule:nonzero;stroke-width:2;stroke-miterlimit:4;stroke-dasharray:none;stroke-dashoffset:0;stroke-opacity:1"
       id="path2170"
       sodipodi:cx="104"
       sodipodi:cy="56.5"
       sodipodi:rx="34.25"
       sodipodi:ry="34.25"
       d="M 138.25 56.5 A 34.25 34.25 0 1 1  69.75,56.5 A 34.25 34.25 0 1 1  138.25 56.5 z"
       transform="matrix(0.2919708,0,0,0.2919708,107.13504,85.50365)" />
    <path
       sodipodi:type="arc"
       style="opacity:1;fill:#b3b3b3;fill-opacity:1;fill-rule:nonzero;stroke-width:2;stroke-miterlimit:4;stroke-dasharray:none;stroke-dashoffset:0;stroke-opacity:1"
       id="path2172"
       sodipodi:cx="104"
       sodipodi:cy="56.5"
       sodipodi:rx="34.25"
       sodipodi:ry="34.25"
       d="M 138.25 56.5 A 34.25 34.25 0 1 1  69.75,56.5 A 34.25 34.25 0 1 1  138.25 56.5 z"
       transform="matrix(0.2919708,0,0,0.2919708,132.13504,85.50365)" />
    <path
       transform="matrix(0.2919708,0,0,0.2919708,157.13504,85.50365)"
       d="M 138.25 56.5 A 34.25 34.25 0 1 1  69.75,56.5 A 34.25 34.25 0 1 1  138.25 56.5 z"
       sodipodi:ry="34.25"
       sodipodi:rx="34.25"
       sodipodi:cy="56.5"
       sodipodi:cx="104"
       id="path2174"
       style="opacity:1;fill:#b3b3b3;fill-opacity:1;fill-rule:nonzero;stroke-width:2;stroke-miterlimit:4;stroke-dasharray:none;stroke-dashoffset:0;stroke-opacity:1"
       sodipodi:type="arc" />
    <path
       transform="matrix(0.2919708,0,0,0.2919708,-5.3649633,57.50365)"
       d="M 138.25 56.5 A 34.25 34.25 0 1 1  69.75,56.5 A 34.25 34.25 0 1 1  138.25 56.5 z"
       sodipodi:ry="34.25"
       sodipodi:rx="34.25"
       sodipodi:cy="56.5"
       sodipodi:cx="104"
       id="path2176"
       style="opacity:1;fill:#b3b3b3;fill-opacity:1;fill-rule:nonzero;stroke-width:2;stroke-miterlimit:4;stroke-dasharray:none;stroke-dashoffset:0;stroke-opacity:1"
       sodipodi:type="arc" />
    <path
       sodipodi:type="arc"
       style="opacity:1;fill:#b3b3b3;fill-opacity:1;fill-rule:nonzero;stroke-width:2;stroke-miterlimit:4;stroke-dasharray:none;stroke-dashoffset:0;stroke-opacity:1"
       id="path2178"
       sodipodi:cx="104"
       sodipodi:cy="56.5"
       sodipodi:rx="34.25"
       sodipodi:ry="34.25"
       d="M 138.25 56.5 A 34.25 34.25 0 1 1  69.75,56.5 A 34.25 34.25 0 1 1  138.25 56.5 z"
       transform="matrix(0.2919708,0,0,0.2919708,44.635037,57.50365)" />
    <path
       sodipodi:type="arc"
       style="opacity:1;fill:#b3b3b3;fill-opacity:1;fill-rule:nonzero;stroke-width:2;stroke-miterlimit:4;stroke-dasharray:none;stroke-dashoffset:0;stroke-opacity:1"
       id="path2180"
       sodipodi:cx="104"
       sodipodi:cy="56.5"
       sodipodi:rx="34.25"
       sodipodi:ry="34.25"
       d="M 138.25 56.5 A 34.25 34.25 0 1 1  69.75,56.5 A 34.25 34.25 0 1 1  138.25 56.5 z"
       transform="matrix(0.2919708,0,0,0.2919708,94.635037,57.50365)" />
    <path
       transform="matrix(0.2919708,0,0,0.2919708,144.63504,57.50365)"
       d="M 138.25 56.5 A 34.25 34.25 0 1 1  69.75,56.5 A 34.25 34.25 0 1 1  138.25 56.5 z"
       sodipodi:ry="34.25"
       sodipodi:rx="34.25"
       sodipodi:cy="56.5"
       sodipodi:cx="104"
       id="path2182"
       style="opacity:1;fill:#b3b3b3;fill-opacity:1;fill-rule:nonzero;stroke-width:2;stroke-miterlimit:4;stroke-dasharray:none;stroke-dashoffset:0;stroke-opacity:1"
       sodipodi:type="arc" />
    <path
       sodipodi:type="arc"
       style="opacity:1;fill:#b3b3b3;fill-opacity:1;fill-rule:nonzero;stroke-width:2;stroke-miterlimit:4;stroke-dasharray:none;stroke-dashoffset:0;stroke-opacity:1"
       id="path2184"
       sodipodi:cx="104"
       sodipodi:cy="56.5"
       sodipodi:rx="34.25"
       sodipodi:ry="34.25"
       d="M 138.25 56.5 A 34.25 34.25 0 1 1  69.75,56.5 A 34.25 34.25 0 1 1  138.25 56.5 z"
       transform="matrix(0.2919708,0,0,0.2919708,19.635037,29.50365)" />
    <path
       transform="matrix(0.2919708,0,0,0.2919708,119.63504,29.50365)"
       d="M 138.25 56.5 A 34.25 34.25 0 1 1  69.75,56.5 A 34.25 34.25 0 1 1  138.25 56.5 z"
       sodipodi:ry="34.25"
       sodipodi:rx="34.25"
       sodipodi:cy="56.5"
       sodipodi:cx="104"
       id="path2186"
       style="opacity:1;fill:#b3b3b3;fill-opacity:1;fill-rule:nonzero;stroke-width:2;stroke-miterlimit:4;stroke-dasharray:none;stroke-dashoffset:0;stroke-opacity:1"
       sodipodi:type="arc" />
    <path
       transform="matrix(0.2919708,0,0,0.2919708,69.635037,1.50365)"
       d="M 138.25 56.5 A 34.25 34.25 0 1 1  69.75,56.5 A 34.25 34.25 0 1 1  138.25 56.5 z"
       sodipodi:ry="34.25"
       sodipodi:rx="34.25"
       sodipodi:cy="56.5"
       sodipodi:cx="104"
       id="path2188"
       style="opacity:1;fill:#b3b3b3;fill-opacity:1;fill-rule:nonzero;stroke-width:2;stroke-miterlimit:4;stroke-dasharray:none;stroke-dashoffset:0;stroke-opacity:1"
       sodipodi:type="arc" />
  </g>
</svg>
